<?xml version="1.0" encoding="UTF-8"?>
<svg id="Ebene_1" xmlns="http://www.w3.org/2000/svg" version="1.1" viewBox="0 0 1190.55 841.89">
  <!-- Generator: Adobe Illustrator 30.4.0, SVG Export Plug-In . SVG Version: 2.1.4 Build 226)  -->
  <defs>
    <style>
      .st0 {
        fill: #fcde00;
      }

      .st1 {
        stroke: #fcde01;
        stroke-miterlimit: 10;
        stroke-width: 8px;
      }

      .st1, .st2 {
        fill: #0e0e0e;
      }
    </style>
  </defs>
  <path class="st1" d="M600.82,789.64c195.1,0,354.33-159.23,354.33-354.48S795.92,80.83,600.82,80.83,246.49,240.06,246.49,435.16s159.23,354.48,354.33,354.48Z"/>
  <path class="st0" d="M600.82,695.89c143.61,0,260.73-117.12,260.73-260.72s-117.12-260.58-260.73-260.58-260.58,117.12-260.58,260.58,117.12,260.72,260.58,260.72Z"/>
  <path class="st2" d="M372.09,433.97c-2.98-4.17-5.51-7.74-8.04-11.31-1.34-1.93-2.68-3.87-4.02-5.8-2.68,26.64.15,54.02,7.44,80.21,7.59,27.53,19.94,53.72,35.42,76.19,0-1.34-.15-2.68-.15-4.02-.3-9.38-.6-19.2-.15-27.23-7.89-15.18-14.58-32.29-19.94-51.19-5.06-17.56-8.63-36.76-10.57-56.85h0ZM377.3,431.14l.45.6.15.89c1.79,20.09,5.36,38.99,10.42,56.7,5.21,18.6,12.05,35.72,19.79,50.75l.45,1.49c-.45,8.04-.15,18.01.15,27.53.15,4.61.15,9.23.3,13.69l.15,8.48-5.51-6.85c-18.45-24.7-33.04-54.47-41.82-85.87-8.04-29.17-11.01-60.12-6.7-89.89l.89-7.14,4.32,5.8c3.27,4.32,5.8,8.18,8.48,11.91,2.83,4.02,5.51,7.89,8.48,11.9Z"/>
  <path class="st2" d="M430.28,264.62c1.19.45,2.23.89,3.42,1.49,1.94.89,3.72,1.64,5.51,2.38,12.2-8.18,26.64-16.82,41.67-24.85,14.29-7.44,29.17-14.44,43.45-19.94,1.19-3.27,2.53-6.85,3.72-10.27,1.19-3.12,2.23-5.95,3.42-9.23-18.9,5.65-37.35,13.99-54.62,24.11-17.41,10.42-33.48,22.77-46.58,36.31h0ZM424.18,268.04l-3.57-1.64,2.68-2.98c13.99-14.88,31.4-28.72,50.6-40.03,19.2-11.46,40.33-20.69,61.46-26.49l5.36-1.49-1.79,5.36c-1.79,4.91-3.57,9.67-5.36,14.58-1.19,3.42-2.53,6.85-4.17,11.61l-.45,1.19-1.19.45c-14.58,5.65-29.61,12.65-44.05,20.24-15.48,8.19-30.21,16.97-42.56,25.45l-1.19.89-1.49-.59c-2.53-1.04-4.91-2.08-7.14-3.13-2.38-1.04-4.76-2.23-7.14-3.42Z"/>
  <path class="st2" d="M447.25,283.22c-.45,12.05-.89,24.11-1.19,36.16-.45,11.9-.74,23.96-1.04,35.72,10.86,5.06,22.17,10.12,33.63,15.18,11.16,4.91,22.32,9.82,33.78,15.33,14.44-10.12,28.57-19.35,43.31-27.98,14.58-8.63,29.61-16.82,45.09-24.41l7.14-64.29-76.64-29.91c-15.03,5.95-29.47,12.5-43.31,19.79-13.84,7.29-27.38,15.48-40.78,24.41h0ZM441.44,281.44l.15-1.34,1.19-.89c13.84-9.38,27.98-17.86,42.41-25.45,14.58-7.74,29.47-14.44,44.94-20.54l1.19-.45,1.04.45,79.91,31.1,2.08.74-.3,2.23-7.59,68.16-.15,1.64-1.49.74c-15.92,7.74-31.25,15.92-46.13,24.85-14.88,8.78-29.47,18.3-44.2,28.57l-1.34,1.04-1.64-.74c-11.46-5.36-23.36-10.71-35.27-15.92-11.76-5.21-23.37-10.42-35.42-16.07l-1.79-.74v-1.93c.3-12.65.6-25.15,1.04-37.65.45-12.65.89-25.3,1.34-37.8Z"/>
  <path class="st2" d="M703.06,216.55c.15.45.3.89.45,1.34.3,1.49.74,3.72,1.34,6.25,12.95,8.48,27.08,18.75,40.63,29.32,12.35,9.82,24.26,20.09,34.08,29.91,2.53-.15,4.76-.15,7-.15.45,0,.89.15,1.49.15-11.46-14.14-24.85-27.38-39.58-38.99-14.14-11.01-29.47-20.54-45.39-27.83h0ZM695.92,212.23l-1.64-5.8,5.65,2.23c18.3,7.74,36.01,18.45,52.09,31.1,16.81,13.39,32,28.72,44.64,45.09l4.02,5.21-6.55-.45c-2.83-.3-5.36-.45-7.59-.45-2.53-.15-5.06,0-8.04,0h-1.19l-.89-.89c-9.82-9.67-21.88-20.09-34.68-30.21-13.69-10.86-28.13-21.28-41.07-29.61l-1.04-.74-.15-1.04c-.59-2.53-1.04-4.76-1.79-7.44-.45-2.38-1.04-4.61-1.79-7Z"/>
  <path class="st2" d="M694.58,238.43c-11.46,5.21-22.62,10.27-33.93,15.33-11.16,5.06-22.32,10.12-33.78,15.33-1.04,11.01-2.23,21.43-3.42,31.7-1.34,10.57-2.53,20.98-3.42,31.4,14.14,7.44,27.83,16.07,40.92,25.75,14.44,10.42,28.13,22.02,41.22,34.38,12.95-3.27,23.51-6.1,33.93-8.78,11.76-3.12,23.51-6.1,33.48-8.63.3-18.6-.15-36.91-.6-55.21-.3-7.44-.45-14.73-.59-22.32-12.5-11.61-24.7-22.32-36.76-32.14-12.05-9.82-24.26-18.6-37.06-26.79h0ZM693.54,232.47l1.49-.6,1.34.74c13.39,8.48,26.19,17.86,38.84,27.98,12.65,10.27,25.15,21.28,38.1,33.33l.89.89v1.19c.15,7.89.3,15.63.6,23.51.45,19.2,1.04,38.1.59,57.59v2.23l-2.23.59c-13.54,3.57-24.56,6.4-35.57,9.23-12.5,3.27-25.15,6.55-35.42,9.23l-1.64.45-1.19-1.19c-13.1-12.5-27.23-24.26-41.82-34.97-13.54-9.97-27.53-18.75-41.97-26.19l-1.79-.89.15-1.94c1.19-11.76,2.38-22.62,3.57-33.48,1.34-11.16,2.68-22.32,3.72-33.33l.15-1.79,1.49-.6c12.05-5.51,23.81-10.71,35.42-16.07,11.61-5.21,23.36-10.42,35.27-15.92Z"/>
  <path class="st2" d="M540.4,669.1c19.5,5.36,41.07,7.74,62.06,7.44,21.43-.15,42.41-2.98,60.72-8.04-2.23-1.64-4.47-3.42-6.7-5.06-3.57-2.83-6.99-5.51-10.27-8.33-16.67.89-33.19,1.64-50,1.93-16.22.3-32.74.15-49.11-1.04-1.34,2.38-2.53,4.91-3.72,7.29-.89,1.79-1.93,3.72-2.98,5.8h0ZM535.2,673.71l-3.42-1.04,1.79-3.27c1.64-2.83,3.13-5.8,4.61-8.78,1.34-2.83,2.83-5.65,4.76-9.08l.89-1.64,1.79.15c16.97,1.19,33.93,1.49,50.6,1.19,16.82-.3,33.78-1.19,50.9-2.08h1.04l.89.74c3.87,3.12,7.44,6.1,11.01,8.93,3.72,2.83,7.59,5.65,11.46,8.33l4.91,3.42-5.65,1.79c-20.39,6.25-44.05,9.82-68.31,10.12-22.77.15-46.13-2.53-67.27-8.78Z"/>
  <path class="st2" d="M508.71,578.92c5.95,9.67,12.2,19.64,18.45,29.46,6.25,9.82,12.5,19.65,18.75,29.91,16.67.89,33.78,1.49,50.6,1.49,15.78,0,31.55-.6,47.18-1.64,10.71-11.46,20.54-22.77,29.61-34.08,8.93-11.16,17.26-22.32,25.15-33.63-7.29-9.67-13.99-18.45-20.69-27.38-6.99-9.23-13.99-18.6-20.83-27.83-18.75,1.04-36.76,1.49-54.02,1.19-16.97-.45-33.33-1.49-49.11-3.13-6.25,11.01-13.24,21.88-20.68,32.74-7.59,11.01-15.77,21.88-24.41,32.89h0ZM502.61,580.26l-1.04-1.79,1.19-1.64c9.23-11.46,17.71-22.77,25.45-34.08,7.89-11.31,15.03-22.62,21.43-34.08l.89-1.79,1.94.3c16.07,1.93,33.04,2.98,50.45,3.27,17.71.3,36.01,0,55.21-1.19l1.49-.15,1.04,1.34c7.59,10.27,14.73,19.64,21.88,29.02,7.29,9.67,14.58,19.35,21.88,29.02l1.19,1.79-1.19,1.64c-8.19,12.06-17.11,23.96-26.49,35.72-9.52,11.76-19.64,23.51-30.66,35.27l-.89.89-1.04.15c-16.07,1.04-32.44,1.64-48.81,1.64-17.56,0-35.27-.45-52.53-1.49l-1.49-.15-.74-1.19c-6.25-10.42-12.95-20.83-19.64-31.25-6.4-10.27-12.95-20.54-19.49-31.25Z"/>
  <path class="st2" d="M841.31,454.95c-1.04.45-1.93,1.04-2.98,1.49-2.23,1.19-4.46,2.38-6.85,3.57-4.02,16.67-8.78,33.63-14.58,50.15-5.06,14.44-10.86,28.43-17.41,41.22,1.49,2.68,2.68,5.06,3.87,7.29h0c.74,1.49,1.49,2.98,2.08,4.32,10.42-16.52,18.75-34.38,24.85-52.83,5.95-18.3,9.67-36.91,11.01-55.21h0ZM842.95,447.07l4.76-2.83-.3,5.51c-.74,20.54-4.76,41.67-11.61,62.21-6.7,20.54-16.22,40.48-28.27,58.63l-2.83,4.46-2.23-4.76c-1.64-3.57-3.12-6.4-4.32-8.93h0c-1.49-2.83-2.83-5.51-4.46-8.63l-.89-1.34.74-1.34c6.85-12.95,12.8-27.23,17.86-41.82,5.8-16.67,10.71-33.93,14.73-50.89l.3-1.49,1.19-.6c3.12-1.49,5.65-2.68,8.04-4.02,2.53-1.19,4.76-2.53,7.29-4.17Z"/>
  <path class="st2" d="M786.7,549.75l-.6.89-1.04.45c-11.16,3.57-22.62,6.55-34.67,8.63-12.2,2.23-24.7,3.72-37.8,4.31h-1.49l-.89-1.19c-7.59-9.97-15.18-19.64-22.62-29.17-7.59-9.52-15.03-19.05-22.77-29.17l-1.19-1.64,1.04-1.64c8.93-14.58,16.67-29.47,22.77-44.94,6.1-15.48,10.57-31.55,13.24-48.81l.15-1.79,1.93-.45c13.39-3.42,25-6.4,36.61-9.38,12.65-3.27,25.3-6.4,36.61-9.37l1.79-.45,1.19,1.34c8.78,10.27,16.52,20.39,23.36,30.95,6.85,10.71,12.8,21.58,18.16,33.33l.3,1.04-.15.89c-4.02,17.71-8.18,34.23-13.54,50.15-5.51,16.07-11.91,31.25-20.39,45.98h0ZM782.23,545.88c7.89-14.14,14.14-28.72,19.2-43.9,5.21-15.48,9.37-31.55,13.24-48.66-5.06-11.16-10.71-21.58-17.26-31.7-6.4-9.97-13.54-19.35-21.73-29.02-12.65,3.27-23.81,6.1-34.82,8.93-12.05,2.98-23.96,5.95-34.82,8.78-2.68,16.97-7.14,32.89-13.24,48.07-5.95,15.33-13.39,29.91-22.02,44.2,7.14,9.37,14.29,18.45,21.43,27.53,7.14,9.08,14.43,18.3,21.73,27.98,12.35-.6,24.11-1.93,35.42-4.02,11.31-2.08,22.32-4.91,32.89-8.18Z"/>
  <path class="st2" d="M521.65,396.62c9.38,38.1,17.11,67.12,32,100.9,34.38,4.76,68.16,5.51,102.24,2.38,16.07-26.34,30.66-58.48,36.61-97.03-23.96-23.07-50.6-43.31-81.55-59.38-34.52,16.22-70.98,37.8-89.29,53.13Z"/>
  <path class="st2" d="M437.27,371.77c-8.33,9.82-16.22,20.09-23.81,30.66-8.04,10.72-15.48,21.73-22.92,33.33,2.38,17.41,5.51,34.38,9.97,50.75,4.46,16.52,10.27,32.14,18.16,46.88,12.35,8.78,25.45,15.48,38.54,20.68,12.8,5.21,25.75,8.93,38.1,12.05,8.33-9.82,15.63-19.79,22.62-30.06,6.99-10.42,13.54-20.98,20.39-32.29-6.4-15.78-12.35-31.7-17.56-48.52-5.36-16.67-9.97-34.08-13.69-52.38-11.16-4.91-23.21-10.27-35.12-15.63-11.16-5.06-22.32-10.12-34.68-15.48h0ZM434.15,366.26l1.34-1.64,2.08.89c11.61,5.06,24.11,10.71,36.61,16.37,11.76,5.21,23.51,10.42,36.76,16.22l1.34.6.3,1.49c3.72,18.6,8.33,36.31,13.69,53.43,5.36,16.97,11.46,33.19,18.01,49.26l.6,1.34-.74,1.19c-7.14,12.06-14.14,23.22-21.28,33.93-7.44,10.86-15.18,21.43-24.26,32l-1.19,1.34-1.79-.45c-13.1-3.27-26.79-7.14-40.48-12.65-13.69-5.51-27.38-12.65-40.48-21.88l-.89-1.04c-8.18-15.18-14.14-31.55-18.9-48.51-4.61-16.97-7.74-34.67-10.27-52.68l-.15-1.04.6-.89c7.59-12.05,15.48-23.66,23.66-34.68,8.04-11.01,16.52-21.88,25.45-32.59Z"/>
  <g>
    <path class="st0" d="M806.34,247.36l41.52-33.63h0l3.27,4.17h0l12.95,15.92c3.27,4.02,4.91,7.89,4.91,11.61s-1.79,6.99-5.06,9.67c-3.42,2.83-7,3.72-10.87,2.53-.59-.15-1.34-.3-1.93-.74h0c.45,1.34.6,2.53.74,3.72.3,4.17-1.34,7.59-4.76,10.42-4.32,3.57-8.63,4.76-12.95,4.02-4.32-.89-8.48-3.87-12.65-8.93l-11.76-14.58h0l-3.42-4.17h0ZM831.34,240.81l-11.16,8.93h0l8.63,10.57c1.79,2.23,3.72,3.57,5.51,3.87,1.93.45,3.87-.3,5.8-1.79,1.79-1.49,2.68-3.12,2.53-4.91,0-1.93-1.04-4.02-2.98-6.25l-8.33-10.42h0ZM847.41,227.86l-9.08,7.29h0l8.04,9.97c1.64,2.08,3.42,3.42,5.06,3.87,1.79.45,3.42,0,5.06-1.34,1.34-1.19,1.93-2.68,1.79-4.31-.3-1.64-1.34-3.72-3.12-5.95l-7.74-9.53Z"/>
    <path class="st0" d="M815.12,225.93c-4.91,5.8-9.67,8.93-14.43,9.38-4.76.45-10.12-1.79-15.92-6.7-5.66-4.76-8.63-9.52-9.08-14.44-.45-5.06,1.79-10.27,6.4-15.92l21.43-25.6h0l4.17,3.57,4.32,3.72h0l-21.58,25.74c-2.53,2.83-3.72,5.66-3.57,8.19.15,2.68,1.49,5.06,4.17,7.29,2.83,2.38,5.51,3.42,7.89,3.12,2.23-.3,4.76-2.08,7.44-5.21l21.73-25.75h0l4.17,3.57,4.32,3.57h0l-21.43,25.45Z"/>
    <polygon class="st0" points="735.2 191.55 735.2 191.55 763.63 146.31 763.63 146.31 768.24 149.29 773 152.26 773 152.26 749.79 189.47 749.79 189.47 772.26 203.6 772.26 203.6 769.73 207.62 767.2 211.64 767.2 211.64 735.2 191.55"/>
    <path class="st0" d="M738.63,172.05h0c-3.13,5.51-7.29,8.93-12.5,10.57-5.36,1.64-10.86,1.19-16.82-1.49-6.85-2.98-11.16-7.74-13.24-14.14-1.93-6.4-1.19-13.54,2.23-21.28,3.57-7.89,8.33-13.39,14.43-16.22,6.25-2.98,12.65-2.83,19.49.15,5.8,2.68,9.97,6.4,12.35,11.16,2.38,4.91,2.83,10.12,1.04,15.77h0l-10.27-4.61h0c.89-2.83.74-5.36-.6-7.74-1.19-2.38-3.27-4.31-6.25-5.65-3.87-1.64-7.44-1.49-11.01.6-3.42,2.08-6.4,5.8-8.78,11.16-2.38,5.21-3.12,9.67-2.23,13.69.74,3.87,3.12,6.7,6.99,8.33,2.98,1.34,5.8,1.64,8.48.74,2.68-.89,4.91-2.68,6.55-5.51h0l10.12,4.46Z"/>
    <polygon class="st0" points="649.49 160.89 649.49 160.89 661.54 108.81 661.54 108.81 666.9 110 672.41 111.34 672.41 111.34 662.58 154.2 662.58 154.2 688.33 160.15 688.33 160.15 687.29 164.76 686.24 169.38 686.24 169.38 649.49 160.89"/>
    <polygon class="st0" points="608.26 157.02 608.26 157.02 611.99 103.75 611.99 103.75 617.64 104.05 623.15 104.49 623.15 104.49 620.17 148.39 620.17 148.39 646.66 150.18 646.66 150.18 646.21 154.94 645.92 159.7 645.92 159.7 608.26 157.02"/>
    <path class="st0" d="M577.01,116.25l-5.66,22.03h0l14.14-1.04h0l-8.48-20.98h0ZM554.69,159.55l15.18-54.62,6.4-.45,6.4-.45,22.47,51.94h0l-5.8.45-5.95.3h0l-4.17-10.57h0l-20.24,1.49h0l-2.83,11.01h0l-5.66.45-5.8.45Z"/>
    <path class="st0" d="M510.64,171.46l-13.84-51.49h0l5.06-1.49h0l19.94-5.21c4.91-1.34,9.08-1.34,12.5.3,3.42,1.49,5.8,4.32,6.85,8.48,1.19,4.32.45,7.89-2.08,11.01-.45.45-.89,1.04-1.49,1.49h0c1.34.15,2.53.45,3.72.74,3.87,1.49,6.4,4.32,7.59,8.63,1.34,5.36.89,9.67-1.64,13.39-2.53,3.57-6.99,6.25-13.24,7.89l-18.3,4.91h0l-5.06,1.34h0ZM514.81,146.01l3.72,13.84h0l13.1-3.57c2.83-.74,4.76-1.94,5.8-3.57,1.04-1.49,1.34-3.57.6-5.95-.6-2.23-1.64-3.57-3.42-4.31-1.79-.75-4.02-.6-6.85.15l-12.95,3.42h0ZM509.45,126.07l2.98,11.31h0l12.35-3.27c2.68-.74,4.61-1.79,5.66-3.12,1.04-1.34,1.34-3.13.74-5.21-.45-1.64-1.49-2.83-3.12-3.27-1.64-.6-3.87-.45-6.7.3l-11.9,3.27Z"/>
    <path class="st0" d="M480.43,143.33h0c-1.19-2.23-2.98-3.57-5.51-4.17-2.38-.6-5.06-.15-8.19,1.19-2.53,1.19-4.32,2.68-5.21,4.46-1.04,1.79-1.04,3.72-.15,5.65.74,1.49,1.93,2.23,3.87,2.38,1.79.15,5.51-.3,10.86-1.49,7.74-1.49,13.39-1.79,16.67-.74,3.27,1.04,5.95,3.72,8.04,8.33,1.93,4.61,1.79,8.93-.6,13.24-2.38,4.32-6.7,7.89-12.8,10.57-6.25,2.83-11.61,3.42-16.37,2.23-4.76-1.34-8.48-4.61-11.01-9.67h0l9.82-4.46h0c1.19,2.53,3.13,4.17,5.51,4.76,2.38.59,5.06.15,8.33-1.19,3.12-1.49,5.51-3.13,6.85-5.06,1.34-1.78,1.64-3.72.74-5.51-.74-1.78-2.08-2.98-3.72-3.12-1.64-.3-4.76,0-9.38.89-8.63,1.79-14.58,2.23-18.01,1.34-3.57-.89-6.25-3.42-8.04-7.59-2.23-4.76-2.08-9.23,0-13.54,2.23-4.32,6.25-7.74,12.05-10.42,5.51-2.38,10.57-2.98,15.33-1.64,4.76,1.34,8.33,4.46,10.86,9.08h0l-9.97,4.46Z"/>
    <path class="st0" d="M435.64,166.85h0c-1.64-2.08-3.57-3.12-6.1-3.42-2.53-.15-5.21.6-7.89,2.38-2.38,1.49-4.02,3.12-4.76,5.06-.59,1.93-.45,3.87.74,5.65.89,1.49,2.23,2.08,4.17,1.94,1.79-.15,5.36-1.19,10.57-2.98,7.44-2.68,12.95-3.72,16.37-3.12,3.42.45,6.4,2.83,9.08,7.14,2.68,4.17,3.12,8.63,1.34,13.25-1.79,4.61-5.51,8.63-11.31,12.2-5.65,3.57-11.01,5.06-15.92,4.47-4.76-.74-8.93-3.42-12.2-8.19h0l9.08-5.65h0c1.64,2.38,3.72,3.72,6.1,3.87,2.53.3,5.21-.45,8.18-2.23,2.98-1.93,5.06-3.87,6.1-5.95,1.04-2.08,1.04-3.87,0-5.65-1.04-1.64-2.53-2.53-4.17-2.53-1.79-.15-4.76.6-9.23,2.23-8.18,2.83-14.14,4.17-17.71,3.72-3.57-.3-6.55-2.38-8.93-6.4-2.83-4.32-3.42-8.78-1.79-13.39,1.64-4.61,5.06-8.48,10.42-11.91,5.06-3.12,10.12-4.46,14.88-3.72,4.91.6,8.93,3.13,12.05,7.44h0l-9.08,5.8Z"/>
    <path class="st0" d="M414.06,201.82c5.21,5.51,7.74,10.71,7.59,15.48-.15,4.76-3.13,9.82-8.63,15.03-5.36,4.91-10.57,7.29-15.48,7.14-5.06-.15-9.97-2.83-15.03-8.18l-22.77-24.41h0l4.17-3.72,4.02-3.87h0l22.92,24.55c2.68,2.83,5.21,4.32,7.89,4.61,2.53.15,5.06-.89,7.59-3.27,2.83-2.53,4.17-5.06,4.02-7.44,0-2.38-1.34-5.06-4.17-8.03l-23.07-24.7h0l4.17-3.72,4.02-3.87h0l22.77,24.41Z"/>
    <polygon class="st0" points="373.43 274.29 331.91 240.66 331.91 240.66 355.87 211.19 355.87 211.19 359.44 214.17 363.16 217.15 363.16 217.15 346.35 237.98 346.35 237.98 355.72 245.57 355.72 245.57 370.46 227.41 374.03 230.39 377.6 233.22 377.6 233.22 362.87 251.37 362.87 251.37 380.43 265.66 377.01 269.98 373.43 274.29"/>
  </g>
  <polygon class="st0" points="373.58 680.41 406.47 638.44 406.47 638.44 410.79 641.87 415.25 645.29 415.25 645.29 402.9 661.06 402.9 661.06 419.42 673.86 419.42 673.86 431.77 658.09 431.77 658.09 436.09 661.51 440.55 664.93 440.55 664.93 407.66 707.05 407.66 707.05 403.2 703.62 398.88 700.2 398.88 700.2 413.76 681.15 413.76 681.15 397.24 668.21 397.24 668.21 382.36 687.26 382.36 687.26 378.05 683.83 373.58 680.41"/>
  <polygon class="st0" points="419.57 715.68 419.57 715.68 445.46 668.95 445.46 668.95 479.84 688 479.84 688 477.6 692.17 475.22 696.33 475.22 696.33 450.67 682.64 450.67 682.64 445.16 692.61 445.16 692.61 468.08 705.26 465.85 709.28 463.62 713.3 463.62 713.3 440.7 700.65 440.7 700.65 434 712.85 434 712.85 459.75 726.99 459.75 726.99 457.37 731.16 455.13 735.32 455.13 735.32 419.57 715.68"/>
  <path class="st0" d="M467.04,741.57l17.41-50.45h0l5.36,1.79h0l20.09,6.99c4.91,1.64,8.33,4.17,10.27,7.74,2.08,3.72,2.38,7.59,1.04,11.76-1.79,4.91-4.61,7.89-8.63,8.93-1.04.3-2.23.45-3.42.6h0c.45.45.89.89,1.34,1.34,2.23,2.68,2.83,6.1,1.49,10.27l-2.53,8.33c-.6,1.64-.74,2.83-.74,3.57,0,.89.45,1.64,1.19,2.38l-.45,1.34-11.76-4.02c0-.74.15-1.94.45-3.72.45-1.79.89-3.72,1.64-5.65l1.49-4.76c.75-2.23.6-4.02-.3-5.51-1.04-1.34-2.98-2.53-5.95-3.57l-10.57-3.72h0l-6.85,19.94h0l-5.21-1.78-5.36-1.79h0ZM487.43,716.72h0l12.2,4.32c2.83.89,5.06,1.04,6.7.45,1.79-.74,2.98-2.08,3.87-4.46.74-2.08.6-4.02-.3-5.65-.89-1.49-2.68-2.68-5.21-3.57l-12.65-4.47h0l-4.61,13.39Z"/>
  <path class="st0" d="M521.51,759.88l8.33-52.68h0l5.51.89h0l21.13,3.27c4.91.89,8.78,2.83,11.46,5.95,2.68,3.27,3.57,6.99,2.98,11.46-.89,5.06-3.13,8.48-7,10.27-.89.45-2.08.89-3.27,1.04h0c.6.45,1.19.74,1.64,1.19,2.68,2.23,3.72,5.51,3.27,9.82l-1.19,8.63c-.15,1.79-.15,2.98,0,3.72.15.89.74,1.49,1.49,2.08l-.15,1.34-12.2-1.93c-.15-.6-.3-1.79-.15-3.57,0-1.93.15-3.87.45-5.95l.74-4.91c.3-2.38-.15-4.17-1.34-5.36-1.19-1.19-3.27-2.08-6.4-2.53l-11.01-1.79h0l-3.27,20.83h0l-5.51-.89-5.51-.89h0ZM537.13,732.05h0l12.8,1.94c2.83.45,5.06.3,6.7-.74,1.64-.89,2.68-2.53,2.98-4.91.45-2.23,0-4.17-1.19-5.51-1.19-1.34-3.13-2.23-5.8-2.68l-13.25-2.08h0l-2.23,13.99Z"/>
  <polygon class="st0" points="578.65 768.81 578.65 768.81 578.65 715.38 578.65 715.38 584.31 715.38 589.81 715.38 589.81 715.38 589.81 759.28 589.81 759.28 616.3 759.28 616.3 759.28 616.3 764.04 616.3 768.81 616.3 768.81 578.65 768.81"/>
  <polygon class="st0" points="627.16 767.62 623.44 714.34 623.44 714.34 629.1 714.04 634.61 713.6 634.61 713.6 638.33 766.87 638.33 766.87 632.82 767.32 627.16 767.62"/>
  <path class="st0" d="M653.5,765.24l-12.05-52.09h0l5.21-1.19h0l20.09-4.61c4.91-1.04,9.23-.89,12.5.74,3.42,1.78,5.51,4.61,6.55,8.78,1.04,4.31.15,7.89-2.53,10.86-.45.6-.89,1.04-1.49,1.49h0c1.34.15,2.53.45,3.57.89,3.87,1.64,6.4,4.46,7.44,8.93,1.19,5.36.45,9.67-2.23,13.24-2.68,3.57-7.14,6.1-13.39,7.44l-18.45,4.32h0l-5.21,1.19h0ZM653.95,719.7l2.68,11.46h0l12.35-2.83c2.83-.6,4.76-1.64,5.8-2.98,1.04-1.34,1.49-2.98.89-5.06-.3-1.79-1.34-2.83-2.98-3.42-1.64-.6-3.87-.6-6.7.15l-12.05,2.68h0ZM658.71,739.94l3.12,13.84h0l13.24-2.98c2.83-.74,4.76-1.79,5.95-3.42,1.04-1.49,1.34-3.57.74-5.95-.45-2.23-1.49-3.57-3.27-4.32-1.64-.74-4.02-.89-6.85-.15l-12.95,2.98Z"/>
  <polygon class="st0" points="708.87 750.35 708.87 750.35 689.82 700.5 689.82 700.5 726.42 686.36 726.42 686.36 728.21 690.83 729.85 695.29 729.85 695.29 703.66 705.41 703.66 705.41 707.67 715.98 707.67 715.98 732.08 706.6 733.72 710.77 735.35 715.08 735.35 715.08 710.95 724.46 710.95 724.46 715.86 737.56 715.86 737.56 743.39 726.99 743.39 726.99 745.03 731.31 746.81 735.77 746.81 735.77 708.87 750.35"/>
  <path class="st0" d="M758.42,729.22l-28.27-45.24h0l4.76-2.98h0l18.16-11.31c4.32-2.68,8.48-3.72,12.5-2.98,4.17.6,7.29,2.83,9.67,6.7,2.83,4.32,3.27,8.33,1.64,12.2-.45,1.04-1.04,2.08-1.79,2.98h0c.6,0,1.34-.15,1.94-.15,3.57,0,6.55,1.64,8.93,5.21l4.76,7.29c1.04,1.49,1.79,2.38,2.53,2.83.6.45,1.34.74,2.38.6l.74,1.19-10.42,6.55c-.6-.3-1.34-1.19-2.53-2.68-1.19-1.34-2.38-2.98-3.42-4.76l-2.68-4.17c-1.34-2.08-2.83-3.13-4.46-3.27-1.79-.15-4.02.74-6.7,2.38l-9.38,5.8h0l11.16,18.01h0l-4.76,2.83-4.76,2.98h0ZM752.02,697.82h0l11.01-6.85c2.38-1.49,3.87-3.12,4.46-4.91.6-1.79.3-3.57-.89-5.65-1.34-1.94-2.83-3.13-4.61-3.42-1.79-.3-3.87.3-6.1,1.79l-11.31,7.14h0l7.44,11.9Z"/>
  <path class="st0" d="M824.79,683.68c-5.95,5.06-12.35,7.14-19.05,6.25-6.7-.89-12.8-4.61-18.3-11.31-5.65-6.55-8.33-13.39-7.89-20.39.3-6.99,3.57-13.1,9.82-18.3,4.91-4.17,10.12-6.4,15.33-6.55,5.36-.15,9.97,1.49,14.14,5.36h0l-8.63,7.14h0c-1.64-1.64-4.02-2.23-6.85-2.08-2.98.15-5.51,1.04-7.59,2.83-3.72,3.12-5.51,6.85-5.51,11.16s1.93,8.78,5.8,13.39c3.87,4.61,7.89,7.29,11.91,8.04,4.02.74,8.04-.59,11.9-3.72h0c3.27-2.83,4.76-6.25,4.46-10.27-.15-2.38-.74-4.61-1.93-7h0l-9.67,8.04-5.95-7,17.26-14.43,18.45,22.02-5.65,4.76-5.36-4.46h0l.15,1.04c.3,6.25-1.94,11.46-7,15.63l.15-.15Z"/>
  <g>
    <g>
      <path class="st0" d="M594.28,379.06h28.28v23.51h-28.28v-23.51h0ZM599.34,384.42v10.27h2.38c.45-4.61,4.61-4.61,4.91,0h3.42c.3-4.61,4.61-4.61,5.06,0h2.38v-10.27h-18.16Z"/>
      <path class="st0" d="M622.4,390.07c12.35-10.12,19.2-10.12,32.59,1.19.74.6,3.72,3.13,5.8.74,1.34-1.49,2.98-.59,3.27,1.04.15,2.23-1.04,3.87-2.53,5.21-1.34,1.19-5.21,1.19-6.85.15-16.82-11.16-21.13-7.89-32.29,4.17v-12.5Z"/>
      <path class="st0" d="M594.28,390.07c-12.05-10.12-19.05-10.12-32.29,1.19-.74.6-3.87,3.13-5.95.74-1.34-1.49-2.98-.59-3.12,1.04-.3,2.23,1.04,3.87,2.38,5.21,1.34,1.19,5.36,1.19,6.85.15,16.82-11.16,21.13-7.89,32.14,4.17v-12.5Z"/>
    </g>
    <g>
      <path class="st0" d="M594.28,414.18h28.28v23.36h-28.28v-23.36h0ZM599.34,419.39v10.27h2.38c.45-4.61,4.61-4.61,4.91,0h3.42c.3-4.61,4.61-4.61,5.06,0h2.38v-10.27h-18.16Z"/>
      <path class="st0" d="M622.4,425.19c12.35-10.27,19.2-10.27,32.59,1.04.74.6,3.72,3.12,5.8.74,1.34-1.49,2.98-.6,3.27,1.04.15,2.38-1.04,3.87-2.53,5.21-1.34,1.19-5.21,1.19-6.85.15-16.82-11.16-21.13-7.89-32.29,4.17v-12.35Z"/>
      <path class="st0" d="M594.28,425.19c-12.05-10.27-19.05-10.27-32.29,1.04-.74.6-3.87,3.12-5.95.74-1.34-1.49-2.98-.6-3.12,1.04-.3,2.38,1.04,3.87,2.38,5.21,1.34,1.19,5.36,1.19,6.85.15,16.82-11.16,21.13-7.89,32.14,4.17v-12.35Z"/>
    </g>
    <g>
      <path class="st0" d="M594.28,449.3h28.28v23.36h-28.28v-23.36h0ZM599.34,454.66v10.12h2.38c.45-4.46,4.61-4.46,4.91,0h3.42c.3-4.46,4.61-4.46,5.06,0h2.38v-10.12h-18.16Z"/>
      <path class="st0" d="M622.4,460.31c12.35-10.27,19.2-10.12,32.59,1.04.74.6,3.72,3.27,5.8.74,1.34-1.49,2.98-.59,3.27,1.04.15,2.38-1.04,3.87-2.53,5.21-1.34,1.34-5.21,1.19-6.85.15-16.82-11.01-21.13-7.74-32.29,4.17v-12.35Z"/>
      <path class="st0" d="M594.28,460.31c-12.05-10.27-19.05-10.12-32.29,1.04-.74.6-3.87,3.27-5.95.74-1.34-1.49-2.98-.59-3.12,1.04-.3,2.38,1.04,3.87,2.38,5.21,1.34,1.34,5.36,1.19,6.85.15,16.82-11.01,21.13-7.74,32.14,4.17v-12.35Z"/>
    </g>
  </g>
  <path class="st0" d="M272.39,458.08v-32.44h-11.31v-6.55c2.98.15,5.51-.59,7.74-1.93,2.38-1.49,4.17-3.42,5.36-6.1h7.59v47.03h-9.38ZM306.32,459.42c-3.87,0-7.14-1.19-9.67-3.42-2.53-2.23-3.87-5.21-4.02-8.93h9.08c0,1.49.45,2.68,1.34,3.57.89.74,2.08,1.19,3.57,1.19h.45c2.83.15,4.76-1.19,6.1-3.87,1.04-2.08,1.79-5.21,1.93-9.23h0c-2.53,2.68-5.51,4.02-9.08,4.02-4.17,0-7.74-1.49-10.42-4.32-2.68-2.98-4.02-6.55-4.02-11.16s1.64-8.63,4.61-11.61c2.98-3.13,7-4.61,11.76-4.61,5.36,0,9.38,1.93,12.05,5.95,2.83,4.02,4.17,9.82,4.17,17.41,0,8.48-1.49,14.73-4.61,19.05-2.83,3.87-6.85,5.95-12.35,5.95h-.89ZM314.95,427.13c0-2.53-.6-4.61-1.93-6.25-1.34-1.64-3.13-2.38-5.06-2.38-2.38,0-4.02.74-5.21,2.23-1.19,1.34-1.78,3.57-1.78,6.4,0,2.38.59,4.47,1.93,5.95,1.19,1.49,2.98,2.23,5.06,2.23s3.72-.74,5.06-2.38c1.34-1.49,1.93-3.42,1.93-5.8Z"/>
  <path class="st0" d="M881.04,457.63c.74-6.99,2.68-13.99,5.8-20.98,2.98-6.4,6.55-12.05,10.86-16.96h-23.22v-8.18h33.19v7c-4.76,5.21-8.63,11.31-11.61,18.3-2.98,6.85-4.91,13.84-5.51,20.83h-9.53ZM941.02,442.16c0,5.06-1.64,9.23-4.61,12.2-3.13,2.98-7.29,4.61-12.65,4.61-4.17,0-7.59-1.34-10.42-3.72-2.68-2.53-4.32-5.8-4.76-10.12h9.37c.15,2.08.89,3.72,2.08,4.76,1.04,1.19,2.68,1.64,4.61,1.64,2.08,0,3.72-.74,4.91-2.38,1.19-1.49,1.93-3.57,1.93-6.1,0-2.68-.74-4.76-1.93-6.4-1.34-1.64-2.98-2.38-5.06-2.38-1.19,0-2.53.3-3.57.89-1.04.59-1.93,1.34-2.53,2.38l-8.18-.45,3.12-25.6h25.75v7.89h-19.2l-1.49,9.97h0c2.53-1.64,5.36-2.38,8.33-2.38,4.17,0,7.59,1.34,10.27,4.17,2.68,2.83,4.02,6.55,4.02,11.01Z"/>
  <path class="st2" d="M654.7,647.08l-2.53-1.94,2.23-2.38c10.57-10.86,20.54-22.47,29.91-34.23,9.38-11.91,18.3-24.11,26.79-36.46l.74-1.04,1.34-.15c12.35-1.19,24.7-2.98,37.2-5.21,12.35-2.08,24.7-4.76,37.06-7.89l2.38-.59,1.04,2.23c1.49,3.27,3.12,6.25,4.61,9.38,1.64,2.98,3.27,6.1,4.91,9.67l.6,1.49-.89,1.34c-13.1,19.05-30.36,36.16-49.56,50.75-20.24,15.18-42.86,27.53-65.48,35.86l-1.49.45-1.19-.74c-5.06-3.42-9.52-6.55-13.99-9.82-4.47-3.27-8.78-6.55-13.69-10.71Z"/>
  <path class="st2" d="M780.3,297.06l-.15-2.98,3.13-.15c3.72,0,7.14,0,10.42.3,3.42.3,6.7.74,10.42,1.49l1.19.15.74,1.04c13.39,20.83,23.81,42.41,30.95,65.33,7.14,23.07,11.01,47.32,10.86,73.66v1.64l-1.34.89c-2.53,1.49-5.36,3.12-8.18,4.61-3.12,1.64-6.4,3.12-9.52,4.76l-2.53,1.19-1.34-2.68c-5.51-11.31-11.76-22.02-18.75-32.59-7-10.42-14.88-20.83-23.96-31.55l-.59-.89v-1.04c.3-13.54.3-26.94.15-40.48-.15-13.54-.6-27.53-1.49-42.71Z"/>
  <path class="st2" d="M545.17,195.72l.45-1.49,1.64-.3c21.28-5.21,44.79-6.85,68.31-5.36,23.66,1.64,47.77,6.4,70.24,14.43l1.49.45.45,1.49c.89,3.57,1.64,6.55,2.38,9.52.74,2.98,1.49,5.95,2.23,9.38l.45,2.38-2.23.89c-16.22,7.14-32,14.29-47.92,21.58-8.48,4.02-17.11,7.89-24.26,11.16l-1.19.45-.89-.3c-13.54-4.91-26.49-10.12-39.74-15.33-13.1-5.21-26.19-10.42-39.58-15.33l-2.68-.89.89-2.68c1.34-4.47,2.98-9.38,4.61-14.44,1.64-4.91,3.42-10.27,5.36-15.63Z"/>
  <path class="st2" d="M358.25,392.15l-.74-1.04.3-1.19c4.32-21.58,10.72-41.67,19.94-60.86,9.23-19.5,21.43-38.1,37.8-57l1.34-1.64,1.94.74c4.31,1.79,8.18,3.72,12.5,5.8.3.15,1.04.45,2.98,1.49l1.79.89-.15,1.93c-1.79,25.6-2.53,46.73-3.27,70.69-.15,1.78-.15,3.72-.3,5.65v1.04l-.6.74c-9.67,11.31-18.31,22.32-26.04,32.74-7.74,10.42-14.73,20.39-21.13,29.91l-2.23,3.27-2.53-3.12c-7.29-9.08-11.76-15.63-17.56-24.11-1.93-2.83-4.02-5.95-4.02-5.95Z"/>
  <path class="st2" d="M414.51,597.07l-.6-.89-.15-.89v-21.88c.15-7.44.15-14.73.15-21.73l-.15-5.06,4.46,2.53c12.35,6.99,24.41,12.65,36.76,17.41,12.35,4.76,25.15,8.63,38.99,12.2l1.79,1.34c13.84,22.62,27.68,45.24,41.52,67.86l.89,1.49-.89,1.64c-1.04,1.64-1.93,3.27-2.98,5.21-2.08,3.57-4.46,7.74-7.74,12.65l-1.19,1.79-2.08-.74c-20.83-6.99-40.48-16.37-58.63-28.27-18.31-12.05-35.12-26.79-50.15-44.64Z"/>
</svg>